<svg width="32" height="32" viewBox="0 0 32 32" fill="none" xmlns="http://www.w3.org/2000/svg">
	<!-- Background circle -->
	<circle cx="16" cy="16" r="15" fill="#3b82f6" stroke="#1e40af" stroke-width="2" />

	<!-- Sun rays -->
	<g fill="#fbbf24" opacity="0.9">
		<rect x="15" y="4" width="2" height="3" rx="1" />
		<rect x="15" y="25" width="2" height="3" rx="1" />
		<rect x="4" y="15" width="3" height="2" rx="1" />
		<rect x="25" y="15" width="3" height="2" rx="1" />
		<rect x="7.5" y="7.5" width="2" height="2" rx="1" transform="rotate(45 7.5 7.5)" />
		<rect x="22.5" y="22.5" width="2" height="2" rx="1" transform="rotate(45 22.5 22.5)" />
		<rect x="22.5" y="7.5" width="2" height="2" rx="1" transform="rotate(-45 22.5 7.5)" />
		<rect x="7.5" y="22.5" width="2" height="2" rx="1" transform="rotate(-45 7.5 22.5)" />
	</g>

	<!-- Sun center -->
	<circle cx="16" cy="16" r="6" fill="#fbbf24" />

	<!-- Cloud -->
	<g fill="#e5e7eb" opacity="0.8">
		<ellipse cx="12" cy="20" rx="4" ry="3" />
		<ellipse cx="16" cy="18" rx="5" ry="3.5" />
		<ellipse cx="20" cy="20" rx="3" ry="2.5" />
	</g>
</svg>
